<mxfile host="app.diagrams.net" modified="2022-07-08T07:43:10.782Z" agent="5.0 (Windows NT 10.0; Win64; x64) AppleWebKit/537.36 (KHTML, like Gecko) Chrome/103.0.0.0 Safari/537.36" etag="zduPK3Ej-DOa330GUt10" version="20.0.4" type="github">
  <diagram name="Page-1" id="b98fa263-6416-c6ec-5b7d-78bf54ef71d0">
    <mxGraphModel dx="2129" dy="830" grid="1" gridSize="10" guides="1" tooltips="1" connect="1" arrows="1" fold="1" page="1" pageScale="1.5" pageWidth="1169" pageHeight="826" background="none" math="0" shadow="0">
      <root>
        <mxCell id="0" style=";html=1;" />
        <mxCell id="1" style=";html=1;" parent="0" />
        <mxCell id="303ed1de8c2c98b4-4" value="模型训练系统" style="whiteSpace=wrap;html=1;rounded=1;shadow=1;strokeWidth=1;fontSize=16;align=center;fillColor=#f5f5f5;strokeColor=#666666;" parent="1" vertex="1">
          <mxGeometry x="630" y="335" width="510" height="40" as="geometry" />
        </mxCell>
        <mxCell id="303ed1de8c2c98b4-5" value="新建训练任务" style="whiteSpace=wrap;html=1;rounded=1;shadow=1;strokeWidth=1;fontSize=16;align=center;fillColor=#f5f5f5;strokeColor=#666666;" parent="1" vertex="1">
          <mxGeometry x="455" y="415" width="275" height="40" as="geometry" />
        </mxCell>
        <mxCell id="303ed1de8c2c98b4-6" value="训练任务监控" style="whiteSpace=wrap;html=1;rounded=1;shadow=1;strokeWidth=1;fontSize=16;align=center;fillColor=#f5f5f5;strokeColor=#666666;" parent="1" vertex="1">
          <mxGeometry x="755" y="415" width="275" height="40" as="geometry" />
        </mxCell>
        <mxCell id="303ed1de8c2c98b4-7" value="训练样本集" style="whiteSpace=wrap;html=1;rounded=1;shadow=1;strokeWidth=1;fontSize=16;align=center;fillColor=#f5f5f5;strokeColor=#666666;" parent="1" vertex="1">
          <mxGeometry x="605" y="710" width="275" height="40" as="geometry" />
        </mxCell>
        <mxCell id="303ed1de8c2c98b4-8" value="任务统计" style="whiteSpace=wrap;html=1;rounded=1;shadow=1;strokeWidth=1;fontSize=16;align=center;fillColor=#f5f5f5;strokeColor=#666666;" parent="1" vertex="1">
          <mxGeometry x="1057" y="415" width="275" height="40" as="geometry" />
        </mxCell>
        <mxCell id="303ed1de8c2c98b4-9" value="系统管理" style="whiteSpace=wrap;html=1;rounded=1;shadow=1;strokeWidth=1;fontSize=16;align=center;fillColor=#f5f5f5;strokeColor=#666666;" parent="1" vertex="1">
          <mxGeometry x="907" y="710" width="275" height="40" as="geometry" />
        </mxCell>
        <mxCell id="303ed1de8c2c98b4-10" value="基本信息" style="whiteSpace=wrap;html=1;rounded=1;shadow=1;strokeWidth=1;fontSize=16;align=center;fillColor=#f5f5f5;strokeColor=#666666;" parent="1" vertex="1">
          <mxGeometry x="455" y="485" width="125" height="80" as="geometry" />
        </mxCell>
        <mxCell id="303ed1de8c2c98b4-12" value="训练数据" style="whiteSpace=wrap;html=1;rounded=1;shadow=1;strokeWidth=1;fontSize=16;align=center;fillColor=#f5f5f5;strokeColor=#666666;" parent="1" vertex="1">
          <mxGeometry x="605" y="485" width="125" height="80" as="geometry" />
        </mxCell>
        <mxCell id="303ed1de8c2c98b4-13" value="任务列表" style="whiteSpace=wrap;html=1;rounded=1;shadow=1;strokeWidth=1;fontSize=16;align=center;fillColor=#f5f5f5;strokeColor=#666666;" parent="1" vertex="1">
          <mxGeometry x="755" y="485" width="125" height="80" as="geometry" />
        </mxCell>
        <mxCell id="303ed1de8c2c98b4-14" value="&lt;span&gt;任务操作&lt;/span&gt;" style="whiteSpace=wrap;html=1;rounded=1;shadow=1;strokeWidth=1;fontSize=16;align=center;fillColor=#f5f5f5;strokeColor=#666666;" parent="1" vertex="1">
          <mxGeometry x="905" y="485" width="125" height="80" as="geometry" />
        </mxCell>
        <mxCell id="303ed1de8c2c98b4-15" value="样本集查询" style="whiteSpace=wrap;html=1;rounded=1;shadow=1;strokeWidth=1;fontSize=16;align=center;fillColor=#f5f5f5;strokeColor=#666666;" parent="1" vertex="1">
          <mxGeometry x="605" y="780" width="125" height="80" as="geometry" />
        </mxCell>
        <mxCell id="303ed1de8c2c98b4-16" value="导入样本集" style="whiteSpace=wrap;html=1;rounded=1;shadow=1;strokeWidth=1;fontSize=16;align=center;fillColor=#f5f5f5;strokeColor=#666666;" parent="1" vertex="1">
          <mxGeometry x="755" y="780" width="125" height="80" as="geometry" />
        </mxCell>
        <mxCell id="303ed1de8c2c98b4-17" value="任务类型统计" style="whiteSpace=wrap;html=1;rounded=1;shadow=1;strokeWidth=1;fontSize=16;align=center;fillColor=#f5f5f5;strokeColor=#666666;" parent="1" vertex="1">
          <mxGeometry x="1057" y="485" width="125" height="80" as="geometry" />
        </mxCell>
        <mxCell id="303ed1de8c2c98b4-18" value="任务状态统计" style="whiteSpace=wrap;html=1;rounded=1;shadow=1;strokeWidth=1;fontSize=16;align=center;fillColor=#f5f5f5;strokeColor=#666666;" parent="1" vertex="1">
          <mxGeometry x="1207" y="485" width="125" height="80" as="geometry" />
        </mxCell>
        <mxCell id="303ed1de8c2c98b4-19" value="数据上传" style="whiteSpace=wrap;html=1;rounded=1;shadow=1;strokeWidth=1;fontSize=16;align=center;fillColor=#f5f5f5;strokeColor=#666666;" parent="1" vertex="1">
          <mxGeometry x="907" y="780" width="125" height="80" as="geometry" />
        </mxCell>
        <mxCell id="303ed1de8c2c98b4-20" value="用户管理" style="whiteSpace=wrap;html=1;rounded=1;shadow=1;strokeWidth=1;fontSize=16;align=center;fillColor=#f5f5f5;strokeColor=#666666;" parent="1" vertex="1">
          <mxGeometry x="1057" y="780" width="125" height="80" as="geometry" />
        </mxCell>
        <mxCell id="303ed1de8c2c98b4-21" value="训练参数" style="whiteSpace=wrap;html=1;rounded=1;shadow=1;strokeWidth=1;fontSize=16;align=center;fillColor=#f5f5f5;strokeColor=#666666;" parent="1" vertex="1">
          <mxGeometry x="455" y="595" width="125" height="80" as="geometry" />
        </mxCell>
        <mxCell id="303ed1de8c2c98b4-22" value="资源配置" style="whiteSpace=wrap;html=1;rounded=1;shadow=1;strokeWidth=1;fontSize=16;align=center;fillColor=#f5f5f5;strokeColor=#666666;" parent="1" vertex="1">
          <mxGeometry x="605" y="595" width="125" height="80" as="geometry" />
        </mxCell>
        <mxCell id="303ed1de8c2c98b4-23" value="任务详情" style="whiteSpace=wrap;html=1;rounded=1;shadow=1;strokeWidth=1;fontSize=16;align=center;fillColor=#f5f5f5;strokeColor=#666666;" parent="1" vertex="1">
          <mxGeometry x="755" y="595" width="125" height="80" as="geometry" />
        </mxCell>
        <mxCell id="303ed1de8c2c98b4-24" value="&lt;span&gt;任务日志&lt;/span&gt;" style="whiteSpace=wrap;html=1;rounded=1;shadow=1;strokeWidth=1;fontSize=16;align=center;fillColor=#f5f5f5;strokeColor=#666666;" parent="1" vertex="1">
          <mxGeometry x="905" y="595" width="125" height="80" as="geometry" />
        </mxCell>
        <mxCell id="303ed1de8c2c98b4-27" value="输出模型统计" style="whiteSpace=wrap;html=1;rounded=1;shadow=1;strokeWidth=1;fontSize=16;align=center;fillColor=#f5f5f5;strokeColor=#666666;" parent="1" vertex="1">
          <mxGeometry x="1057" y="595" width="125" height="80" as="geometry" />
        </mxCell>
        <mxCell id="303ed1de8c2c98b4-37" value="&lt;span&gt;任务耗时统计&lt;/span&gt;" style="whiteSpace=wrap;html=1;rounded=1;shadow=1;strokeWidth=1;fontSize=16;align=center;fillColor=#f5f5f5;strokeColor=#666666;" parent="1" vertex="1">
          <mxGeometry x="1207" y="595" width="125" height="80" as="geometry" />
        </mxCell>
        <mxCell id="303ed1de8c2c98b4-80" style="edgeStyle=orthogonalEdgeStyle;html=1;startSize=6;endFill=0;endSize=6;strokeWidth=1;fontSize=16;rounded=0;endArrow=none;" parent="1" source="303ed1de8c2c98b4-4" target="303ed1de8c2c98b4-5" edge="1">
          <mxGeometry relative="1" as="geometry">
            <Array as="points">
              <mxPoint x="886" y="390" />
              <mxPoint x="593" y="390" />
            </Array>
          </mxGeometry>
        </mxCell>
        <mxCell id="303ed1de8c2c98b4-81" style="edgeStyle=elbowEdgeStyle;html=1;startSize=6;endFill=0;endSize=6;strokeWidth=1;fontSize=16;rounded=0;endArrow=none;" parent="1" source="303ed1de8c2c98b4-4" target="303ed1de8c2c98b4-6" edge="1">
          <mxGeometry relative="1" as="geometry">
            <Array as="points">
              <mxPoint x="885" y="395" />
            </Array>
          </mxGeometry>
        </mxCell>
        <mxCell id="303ed1de8c2c98b4-82" style="edgeStyle=orthogonalEdgeStyle;html=1;startSize=6;endFill=0;endSize=6;strokeWidth=1;fontSize=16;rounded=0;endArrow=none;exitX=0.5;exitY=1;" parent="1" source="303ed1de8c2c98b4-4" target="303ed1de8c2c98b4-7" edge="1">
          <mxGeometry relative="1" as="geometry">
            <Array as="points">
              <mxPoint x="885" y="390" />
              <mxPoint x="430" y="390" />
              <mxPoint x="430" y="730" />
            </Array>
          </mxGeometry>
        </mxCell>
        <mxCell id="303ed1de8c2c98b4-83" style="edgeStyle=orthogonalEdgeStyle;html=1;startSize=6;endFill=0;endSize=6;strokeWidth=1;fontSize=16;rounded=0;endArrow=none;" parent="1" source="303ed1de8c2c98b4-4" target="303ed1de8c2c98b4-8" edge="1">
          <mxGeometry relative="1" as="geometry">
            <Array as="points">
              <mxPoint x="885" y="390" />
              <mxPoint x="1195" y="390" />
            </Array>
          </mxGeometry>
        </mxCell>
        <mxCell id="303ed1de8c2c98b4-84" style="edgeStyle=orthogonalEdgeStyle;html=1;startSize=6;endFill=0;endSize=6;strokeWidth=1;fontSize=16;rounded=0;endArrow=none;" parent="1" source="303ed1de8c2c98b4-4" target="303ed1de8c2c98b4-9" edge="1">
          <mxGeometry relative="1" as="geometry">
            <Array as="points">
              <mxPoint x="885" y="390" />
              <mxPoint x="1360" y="390" />
              <mxPoint x="1360" y="730" />
            </Array>
          </mxGeometry>
        </mxCell>
        <mxCell id="303ed1de8c2c98b4-85" style="edgeStyle=orthogonalEdgeStyle;html=1;startSize=6;endFill=0;endSize=6;strokeWidth=1;fontSize=16;rounded=0;entryX=1;entryY=0.5;endArrow=none;" parent="1" source="303ed1de8c2c98b4-5" target="303ed1de8c2c98b4-10" edge="1">
          <mxGeometry relative="1" as="geometry">
            <Array as="points">
              <mxPoint x="593" y="525" />
            </Array>
          </mxGeometry>
        </mxCell>
        <mxCell id="303ed1de8c2c98b4-86" style="edgeStyle=orthogonalEdgeStyle;html=1;startSize=6;endFill=0;endSize=6;strokeWidth=1;fontSize=16;rounded=0;entryX=1;entryY=0.5;endArrow=none;" parent="1" source="303ed1de8c2c98b4-5" target="303ed1de8c2c98b4-21" edge="1">
          <mxGeometry relative="1" as="geometry">
            <Array as="points">
              <mxPoint x="593" y="635" />
            </Array>
          </mxGeometry>
        </mxCell>
        <mxCell id="303ed1de8c2c98b4-89" style="edgeStyle=orthogonalEdgeStyle;html=1;startSize=6;endFill=0;endSize=6;strokeWidth=1;fontSize=16;rounded=0;entryX=0;entryY=0.5;endArrow=none;" parent="1" source="303ed1de8c2c98b4-5" target="303ed1de8c2c98b4-12" edge="1">
          <mxGeometry relative="1" as="geometry">
            <Array as="points">
              <mxPoint x="593" y="525" />
            </Array>
          </mxGeometry>
        </mxCell>
        <mxCell id="303ed1de8c2c98b4-90" style="edgeStyle=orthogonalEdgeStyle;html=1;startSize=6;endFill=0;endSize=6;strokeWidth=1;fontSize=16;rounded=0;entryX=0;entryY=0.5;endArrow=none;" parent="1" source="303ed1de8c2c98b4-5" target="303ed1de8c2c98b4-22" edge="1">
          <mxGeometry relative="1" as="geometry">
            <Array as="points">
              <mxPoint x="593" y="635" />
            </Array>
          </mxGeometry>
        </mxCell>
        <mxCell id="303ed1de8c2c98b4-92" style="edgeStyle=orthogonalEdgeStyle;html=1;startSize=6;endFill=0;endSize=6;strokeWidth=1;fontSize=16;rounded=0;endArrow=none;entryX=1;entryY=0.5;" parent="1" source="303ed1de8c2c98b4-6" target="303ed1de8c2c98b4-13" edge="1">
          <mxGeometry relative="1" as="geometry">
            <Array as="points">
              <mxPoint x="892" y="525" />
            </Array>
          </mxGeometry>
        </mxCell>
        <mxCell id="303ed1de8c2c98b4-93" style="edgeStyle=orthogonalEdgeStyle;html=1;startSize=6;endFill=0;endSize=6;strokeWidth=1;fontSize=16;rounded=0;endArrow=none;entryX=1;entryY=0.5;" parent="1" source="303ed1de8c2c98b4-6" target="303ed1de8c2c98b4-23" edge="1">
          <mxGeometry relative="1" as="geometry">
            <Array as="points">
              <mxPoint x="893" y="635" />
            </Array>
          </mxGeometry>
        </mxCell>
        <mxCell id="303ed1de8c2c98b4-96" style="edgeStyle=orthogonalEdgeStyle;html=1;startSize=6;endFill=0;endSize=6;strokeWidth=1;fontSize=16;rounded=0;endArrow=none;entryX=0;entryY=0.5;" parent="1" source="303ed1de8c2c98b4-6" target="303ed1de8c2c98b4-14" edge="1">
          <mxGeometry relative="1" as="geometry">
            <Array as="points">
              <mxPoint x="892" y="525" />
            </Array>
          </mxGeometry>
        </mxCell>
        <mxCell id="303ed1de8c2c98b4-97" style="edgeStyle=orthogonalEdgeStyle;html=1;startSize=6;endFill=0;endSize=6;strokeWidth=1;fontSize=16;rounded=0;endArrow=none;entryX=0;entryY=0.5;" parent="1" source="303ed1de8c2c98b4-6" target="303ed1de8c2c98b4-24" edge="1">
          <mxGeometry relative="1" as="geometry">
            <Array as="points">
              <mxPoint x="892" y="635" />
            </Array>
          </mxGeometry>
        </mxCell>
        <mxCell id="303ed1de8c2c98b4-99" style="edgeStyle=orthogonalEdgeStyle;html=1;startSize=6;endFill=0;endSize=6;strokeWidth=1;fontSize=16;rounded=0;endArrow=none;entryX=1;entryY=0.5;" parent="1" source="303ed1de8c2c98b4-7" target="303ed1de8c2c98b4-15" edge="1">
          <mxGeometry relative="1" as="geometry">
            <Array as="points">
              <mxPoint x="742" y="820" />
            </Array>
          </mxGeometry>
        </mxCell>
        <mxCell id="303ed1de8c2c98b4-101" style="edgeStyle=orthogonalEdgeStyle;html=1;startSize=6;endFill=0;endSize=6;strokeWidth=1;fontSize=16;rounded=0;endArrow=none;entryX=0;entryY=0.5;" parent="1" source="303ed1de8c2c98b4-7" target="303ed1de8c2c98b4-16" edge="1">
          <mxGeometry relative="1" as="geometry">
            <Array as="points">
              <mxPoint x="742" y="820" />
            </Array>
          </mxGeometry>
        </mxCell>
        <mxCell id="303ed1de8c2c98b4-103" style="edgeStyle=orthogonalEdgeStyle;html=1;startSize=6;endFill=0;endSize=6;strokeWidth=1;fontSize=16;rounded=0;endArrow=none;entryX=1;entryY=0.5;" parent="1" source="303ed1de8c2c98b4-8" target="303ed1de8c2c98b4-17" edge="1">
          <mxGeometry relative="1" as="geometry">
            <Array as="points">
              <mxPoint x="1195" y="525" />
            </Array>
          </mxGeometry>
        </mxCell>
        <mxCell id="303ed1de8c2c98b4-104" style="edgeStyle=orthogonalEdgeStyle;html=1;startSize=6;endFill=0;endSize=6;strokeWidth=1;fontSize=16;rounded=0;endArrow=none;entryX=0;entryY=0.5;" parent="1" source="303ed1de8c2c98b4-8" target="303ed1de8c2c98b4-18" edge="1">
          <mxGeometry relative="1" as="geometry">
            <Array as="points">
              <mxPoint x="1195" y="525" />
            </Array>
          </mxGeometry>
        </mxCell>
        <mxCell id="303ed1de8c2c98b4-109" style="edgeStyle=orthogonalEdgeStyle;html=1;startSize=6;endFill=0;endSize=6;strokeWidth=1;fontSize=16;rounded=0;endArrow=none;entryX=1;entryY=0.5;" parent="1" source="303ed1de8c2c98b4-9" target="303ed1de8c2c98b4-19" edge="1">
          <mxGeometry relative="1" as="geometry">
            <Array as="points">
              <mxPoint x="1045" y="820" />
            </Array>
          </mxGeometry>
        </mxCell>
        <mxCell id="303ed1de8c2c98b4-114" style="edgeStyle=orthogonalEdgeStyle;html=1;startSize=6;endFill=0;endSize=6;strokeWidth=1;fontSize=16;rounded=0;endArrow=none;entryX=0;entryY=0.5;" parent="1" source="303ed1de8c2c98b4-9" target="303ed1de8c2c98b4-20" edge="1">
          <mxGeometry relative="1" as="geometry">
            <Array as="points">
              <mxPoint x="1045" y="820" />
            </Array>
          </mxGeometry>
        </mxCell>
        <mxCell id="c5gtFZclUgoHFj38pfU1-8" style="edgeStyle=orthogonalEdgeStyle;html=1;startSize=6;endFill=0;endSize=6;strokeWidth=1;fontSize=16;rounded=0;endArrow=none;" parent="1" target="303ed1de8c2c98b4-37" edge="1">
          <mxGeometry relative="1" as="geometry">
            <Array as="points">
              <mxPoint x="1194" y="635" />
            </Array>
            <mxPoint x="1194.5333333333333" y="455" as="sourcePoint" />
            <mxPoint x="1182" y="635" as="targetPoint" />
          </mxGeometry>
        </mxCell>
        <mxCell id="c5gtFZclUgoHFj38pfU1-13" style="edgeStyle=orthogonalEdgeStyle;html=1;startSize=6;endFill=0;endSize=6;strokeWidth=1;fontSize=16;rounded=0;endArrow=none;entryX=1;entryY=0.5;entryDx=0;entryDy=0;" parent="1" target="303ed1de8c2c98b4-27" edge="1">
          <mxGeometry relative="1" as="geometry">
            <Array as="points">
              <mxPoint x="1195" y="635" />
            </Array>
            <mxPoint x="1194.5333333333333" y="454.9999999999999" as="sourcePoint" />
            <mxPoint x="1207" y="635" as="targetPoint" />
          </mxGeometry>
        </mxCell>
      </root>
    </mxGraphModel>
  </diagram>
</mxfile>
